<svg xmlns="http://www.w3.org/2000/svg" width="649.374" height="354.096" viewBox="0 0 649.374 354.096">
  <g id="Group_1" data-name="Group 1" transform="translate(-74.298 -128.952)">
    <path id="Path_1" data-name="Path 1" d="M391.176,128.952c-13.536,20.016-20.52,36.5-22.824,53.856-7.7,57.672,23.256,101.952,41.4,153.5,9.648,27.216,24.12,54.432,25.2,83.808,1.08,29.3-7.128,44.28-27.792,62.928,30.024-20.088,40.9-44.712,39.312-71.784-1.368-23.112-13.176-54.648-21.744-76.608C406.512,288.432,378,244.584,376.92,194.04,376.488,172.152,382.176,155.664,391.176,128.952Z" fill="#01a0c6" fill-rule="evenodd"/>
    <path id="Path_2" data-name="Path 2" d="M518.832,344.088V328.32a18.268,18.268,0,0,0,9.5-2.664,16.436,16.436,0,0,0,7.7-10.152,27.139,27.139,0,0,0,1.08-5.04,45.339,45.339,0,0,0,.36-5.4,29.677,29.677,0,0,0-2.952-11.592,15.928,15.928,0,0,0-8.424-7.92,16.453,16.453,0,0,0-2.664-.864c-.864-.144-1.8-.288-2.592-.432a19.544,19.544,0,0,0-2.016-.072v-15.84h.072a45.834,45.834,0,0,1,15.192,2.592,32.555,32.555,0,0,1,20.736,20.3,42.948,42.948,0,0,1,2.664,14.976,43.448,43.448,0,0,1-2.664,15.12,32.967,32.967,0,0,1-8.064,12.6v-.144a32.313,32.313,0,0,1-12.672,7.776,47.781,47.781,0,0,1-15.264,2.52Zm43.272-74.52H575.64V243.144h19.3v26.424h20.3v14.544h-20.3V313.56q-.216,11.016,4.968,12.744c3.384,1.224,8.136,1.8,14.112,1.8h1.224v14.472H597.672c-7.272,0-12.744-2.088-16.488-6.12-3.672-4.1-5.544-9.648-5.544-16.632V284.112H562.1V269.568Zm84.744,73.008H626.616V269.568h20.232v73.008Zm0-81.288H626.616V243.144h20.232v18.144Zm56.3,65.592h20.52v15.7H697.536a65.441,65.441,0,0,1-14.616-1.656,26.253,26.253,0,0,1-12.816-6.984,31.666,31.666,0,0,1-7.344-10.728,43.944,43.944,0,0,1-3.312-12.672c0-.648-.072-1.3-.072-2.016a19.559,19.559,0,0,1-.072-2.016c0-.72,0-1.584.072-2.376a14.277,14.277,0,0,1,.216-2.52,40.185,40.185,0,0,1,3.168-12.456,32.383,32.383,0,0,1,7.344-10.728,27.608,27.608,0,0,1,12.816-7.056,65.439,65.439,0,0,1,14.616-1.656l26.136-.144v15.84h-20.52a3.093,3.093,0,0,1-.864.144h-3.96a43.407,43.407,0,0,0-5.4.36,15.868,15.868,0,0,0-4.968,1.8,15.109,15.109,0,0,0-6.84,8.208,32.936,32.936,0,0,0-1.728,10.584,31.512,31.512,0,0,0,1.944,10.368,14.759,14.759,0,0,0,6.624,7.776,12.953,12.953,0,0,0,4.968,1.8,42.763,42.763,0,0,0,5.4.576h4.824Zm-184.32-58.536v15.84a18.872,18.872,0,0,0-9.864,3.024,16.937,16.937,0,0,0-7.488,9.648,35.691,35.691,0,0,0-1.08,4.968,29.321,29.321,0,0,0-.216,4.968,28.711,28.711,0,0,0,3.024,12.24,15.822,15.822,0,0,0,9.072,8.136v-.144a19.949,19.949,0,0,0,1.872.72,14.745,14.745,0,0,0,1.728.36,20.363,20.363,0,0,0,2.952.216v15.768h-.072a47.02,47.02,0,0,1-15.192-2.52,32.07,32.07,0,0,1-12.6-7.632,33.123,33.123,0,0,1-8.136-12.6,43.449,43.449,0,0,1-2.664-15.12,42.949,42.949,0,0,1,2.664-14.976,33.96,33.96,0,0,1,8.136-12.672,32.681,32.681,0,0,1,12.672-7.632,45.214,45.214,0,0,1,15.192-2.592Zm-119.3,74.232v-15.84a55.473,55.473,0,0,0,7.056-1.08q8.208-1.836,9.288-14.256a27.84,27.84,0,0,0,.216-3.456c.072-1.152.072-2.16.072-3.312a33.135,33.135,0,0,0-.792-5.976,21.948,21.948,0,0,0-2.232-5.4c-2.016-3.672-4.608-5.9-7.848-6.624a34.553,34.553,0,0,0-5.76-.864v-16.2a66.906,66.906,0,0,1,15.984,2.232c4.968,1.368,9.288,4.464,12.96,9.144a34.116,34.116,0,0,1,6.408,12.816,47.513,47.513,0,0,1,1.368,14.256c-.432,10.728-3.744,19.152-9.864,25.344-6.192,6.12-14.688,9.216-25.56,9.216Zm68.832,0H448.128V269.568H468.36v73.008Zm0-81.288H448.128V243.144H468.36ZM75.528,327.312h40.536a2.226,2.226,0,0,0,.576.144h.576a16.717,16.717,0,0,0,6.336-1.512c1.944-.936,2.952-2.808,2.952-5.688q0-4-2.808-5.4a15.071,15.071,0,0,0-5.9-1.656h-1.728l-16.56-.144q-11.664.108-18.36-3.24c-4.464-2.16-6.768-7.776-6.84-16.776-.144-8.5,2.232-14.544,6.912-18.072,4.68-3.456,10.944-5.256,18.792-5.256l41.4-.144v15.264H107.352a3.169,3.169,0,0,1-.72.144h-4.68a13.447,13.447,0,0,0-4.752,1.08,5.036,5.036,0,0,0-2.952,3.6q-1.188,4.86,1.944,6.7a13.876,13.876,0,0,0,7.056,1.8l17.424-.144c6.84.072,12.528,1.656,17.136,4.752s7.056,8.352,7.344,15.984v.36a26.375,26.375,0,0,1-5.04,16.2c-3.456,4.824-8.424,7.272-14.9,7.272H75.528V327.312Zm324-57.744v16.2q-2.268-.216-4.752-.216v-.144H383.04V326.88l2.808.216c1.008.072,1.944.072,2.88.072a75.236,75.236,0,0,0,10.8-.432v15.84H363.744V243.144h19.3v26.424Zm-209.376,56.88H205.7v-56.88h19.224v71.064c0,9.288-2.16,16.344-6.552,21.1-4.32,4.752-11.3,7.128-20.88,7.128H159.7V354.024h34.488c3.888-.072,6.768-1.008,8.712-2.88s2.88-4.68,2.808-8.568H188.64c-9.864,0-17.424-2.016-22.536-5.976-5.184-3.96-7.776-11.3-7.776-21.888V269.568h19.08v43.488c0,5.328.792,8.928,2.448,10.8,1.584,1.8,5.04,2.736,10.3,2.736v-.144Zm52.056-56.88h73.944c9.432.216,16.776,2.16,22.176,5.832,5.328,3.672,8.064,10.728,8.136,21.1v46.08H327.1V298.8c0-6.84-1.44-10.728-4.392-11.808-2.88-1.08-7.272-1.512-13.032-1.3-.936.072-1.872.072-2.88.072H303.84v56.808H284.184V285.7H261.576v56.88H242.208Z"/>
    <path id="Path_3" data-name="Path 3" d="M200.664,416.088V411.7a9.178,9.178,0,0,0,1.368-.072,8.706,8.706,0,0,0,1.3-.36,5.63,5.63,0,0,0,2.592-1.8,8.792,8.792,0,0,0,1.3-2.88,18.088,18.088,0,0,0,.288-1.944,17.653,17.653,0,0,0,.144-1.944,18.972,18.972,0,0,0-.144-2.016,14.569,14.569,0,0,0-.288-1.872,9.191,9.191,0,0,0-1.3-2.952,5.508,5.508,0,0,0-2.592-1.728,8.706,8.706,0,0,0-1.3-.36,9.182,9.182,0,0,0-1.368-.072V389.16c.72,0,1.512.072,2.376.144a13.987,13.987,0,0,1,2.376.5,9.482,9.482,0,0,1,4.752,2.52,10.4,10.4,0,0,1,2.664,4.608c.216.864.432,1.8.576,2.736a19.389,19.389,0,0,1,.216,2.88,21.357,21.357,0,0,1-.216,3.024,16.129,16.129,0,0,1-.576,2.808,9.821,9.821,0,0,1-7.56,7.2c-.792.144-1.584.288-2.376.36-.72.072-1.512.144-2.232.144Zm39.384-21.816H231.7v-4.536h22.32v4.536h-8.352v21.312h-5.616V394.272Zm44.424-.072a6.118,6.118,0,0,0-4.464,1.584,7.392,7.392,0,0,0-1.656,4.464H293.4v4.464H278.352a10.8,10.8,0,0,0,.288,2.664,6.511,6.511,0,0,0,1.224,2.3,3.4,3.4,0,0,0,2.016,1.152,11.861,11.861,0,0,0,2.3.288h.288l8.928-.072v4.536h-9.144a20.74,20.74,0,0,1-4.248-.432,9.28,9.28,0,0,1-3.816-1.8,9.876,9.876,0,0,1-3.024-4.32,18.74,18.74,0,0,1-.936-5.184v-2.232c.288-4.1,1.44-7.056,3.384-9s4.9-2.88,8.784-2.88h9V394.2Zm41.544-.072c-2.592,0-4.32.864-5.112,2.592a16.624,16.624,0,0,0-1.224,5.976v2.376a14.79,14.79,0,0,0,.5,2.448,6.266,6.266,0,0,0,1.152,2.16,3.62,3.62,0,0,0,2.016,1.152,12.6,12.6,0,0,0,2.3.288h.36l8.928-.072v4.536h-9.216a19.549,19.549,0,0,1-4.176-.432,9.551,9.551,0,0,1-3.888-1.8,9.875,9.875,0,0,1-3.024-4.32,18.739,18.739,0,0,1-.936-5.184V402.7c0-.36.072-.72.072-1.08.288-4.1,1.368-7.056,3.312-9s4.9-2.88,8.784-2.88h9.072v4.392Zm35.5-4.392v10.44H371.52v-10.44h5.4v25.848h-5.4v-10.8H361.512v10.8h-5.4V389.736ZM80.136,415.584H74.448V389.736h5.688v25.848ZM200.664,389.16V393.7a8.269,8.269,0,0,0-1.368.072,5.585,5.585,0,0,0-1.3.36,4.6,4.6,0,0,0-2.592,1.8,8.159,8.159,0,0,0-1.3,2.88v-.072a9.228,9.228,0,0,0-.36,1.944,18.972,18.972,0,0,0-.144,2.016,17.653,17.653,0,0,0,.144,1.944,18.42,18.42,0,0,0,.36,1.944,6.585,6.585,0,0,0,1.3,2.88,4.972,4.972,0,0,0,2.592,1.8,5.585,5.585,0,0,0,1.3.36,8.265,8.265,0,0,0,1.368.072v4.392h-.216a21.807,21.807,0,0,1-2.232-.144,20.65,20.65,0,0,1-2.232-.36,10.074,10.074,0,0,1-4.752-2.52,9.765,9.765,0,0,1-2.736-4.68,15.294,15.294,0,0,1-.576-2.736,20.361,20.361,0,0,1-.216-2.952,21.357,21.357,0,0,1,.216-3.024,10.212,10.212,0,0,1,.576-2.736h0a9.87,9.87,0,0,1,7.488-7.2,20.65,20.65,0,0,1,2.232-.36,12.386,12.386,0,0,1,2.3-.144l.144-.072Zm-97.992.576h6.84L120.1,408.312l-.216-18.576h5.544v25.848h-6.336L108,396l.216,19.584h-5.544V389.736Zm45,13.968c0-4.968.72-8.568,2.3-10.728s5.04-3.24,10.368-3.24h8.28V394.2h-8.712a7.919,7.919,0,0,0-5.04,1.512c-1.08.936-1.656,2.52-1.8,4.824h15.552V405H153.072v10.584h-5.4Z" fill="#189c7b"/>
    <path id="Path_4" data-name="Path 4" d="M691.848,415.008v-4.464h.36a12.479,12.479,0,0,0,2.3-.216,3.756,3.756,0,0,0,2.016-1.224,5.521,5.521,0,0,0,1.152-2.232,16.47,16.47,0,0,0,.5-2.592v-3.312a6.586,6.586,0,0,0-.072-1.152,14.552,14.552,0,0,0-.432-2.448,4.49,4.49,0,0,0-1.152-2.16,3.756,3.756,0,0,0-2.016-1.224,8.425,8.425,0,0,0-2.3-.288h-.36V389.16h.144c3.888.072,6.84,1.008,8.784,2.952,1.944,1.872,3.024,4.9,3.312,9,0,.36.072.72.072,1.08v1.08a17.831,17.831,0,0,1-.936,5.184,9.123,9.123,0,0,1-3.024,4.32,8.608,8.608,0,0,1-3.816,1.872,27.413,27.413,0,0,1-4.248.36Zm26.5-4.464h4.32v4.464h-4.32ZM497.592,393.768h-.576V389.16h.648a.071.071,0,0,0,.072.072h1.44a8.269,8.269,0,0,1,1.368.072,13.4,13.4,0,0,1,2.448.288,7.707,7.707,0,0,1,2.232.936,5.873,5.873,0,0,1,2.736,3.024,9.993,9.993,0,0,1,.864,4.1,11.071,11.071,0,0,1-.648,3.744,7.387,7.387,0,0,1-5.328,4.248,16.54,16.54,0,0,1-3.24.36h-2.592V401.4h.864a6.469,6.469,0,0,0,3.456-.792,3.084,3.084,0,0,0,1.44-2.952c.072-1.656-.432-2.736-1.512-3.168a9.819,9.819,0,0,0-3.672-.648v-.072Zm194.256-4.608V393.7h-6.264v16.848h6.264v4.464H680.112V389.16ZM531.792,415.008,520.56,389.16h6.12l7.776,19.3,7.92-19.3h5.832l-10.8,25.848ZM567,393.7h-8.352v-4.464h22.32V393.7h-8.352v21.312H567V393.7Zm27.144,16.848h4.32v4.464h-4.32v-4.464Zm30.384,4.464a31.46,31.46,0,0,1-4.608-.36,7.13,7.13,0,0,1-3.888-2.3,6.618,6.618,0,0,1-1.944-3.6,20.044,20.044,0,0,1-.432-4.176V389.16h5.472v14.184a12.9,12.9,0,0,0,.792,5.544c.5,1.224,2.232,1.872,5.112,1.872h6.408v4.248ZM651.744,393.7h-8.352v-4.464h22.32V393.7H657.36v21.312h-5.616Zm-154.728.072h-5.76V401.4h5.76v4.608h-5.76v9h-5.4V389.16h11.16Z" fill="#919191"/>
  </g>
</svg>
