<svg xmlns="http://www.w3.org/2000/svg" width="141.298" height="77.048" viewBox="0 0 141.298 77.048">
  <g id="Group_1" data-name="Group 1" transform="translate(-74.298 -128.952)">
    <path id="Path_1" data-name="Path 1" d="M372.373,128.952c-2.945,4.355-4.465,7.943-4.966,11.719-1.676,12.549,5.06,22.184,9.008,33.4,2.1,5.922,5.248,11.844,5.483,18.236.235,6.376-1.551,9.635-6.047,13.693,6.533-4.371,8.9-9.729,8.554-15.62-.3-5.029-2.867-11.891-4.731-16.669-3.964-10.058-10.168-19.6-10.4-30.6C369.177,138.352,370.415,134.764,372.373,128.952Z" transform="translate(-229.126)" fill="#01a0c6" fill-rule="evenodd"/>
    <path id="Path_2" data-name="Path 2" d="M171.024,265.108v-3.431a3.975,3.975,0,0,0,2.068-.58,3.576,3.576,0,0,0,1.676-2.209,5.907,5.907,0,0,0,.235-1.1,9.866,9.866,0,0,0,.078-1.175,6.458,6.458,0,0,0-.642-2.522,3.466,3.466,0,0,0-1.833-1.723,3.58,3.58,0,0,0-.58-.188c-.188-.031-.392-.063-.564-.094a4.249,4.249,0,0,0-.439-.016v-3.447h.016a9.973,9.973,0,0,1,3.306.564,7.084,7.084,0,0,1,4.512,4.418,9.345,9.345,0,0,1,.58,3.259,9.454,9.454,0,0,1-.58,3.29A7.173,7.173,0,0,1,177.1,262.9v-.031a7.031,7.031,0,0,1-2.757,1.692,10.4,10.4,0,0,1-3.321.548Zm9.416-16.215h2.945v-5.75h4.2v5.75H192v3.165h-4.418v6.408q-.047,2.4,1.081,2.773a9.429,9.429,0,0,0,3.071.392H192v3.149h-3.823a4.657,4.657,0,0,1-3.588-1.332,5.231,5.231,0,0,1-1.206-3.619v-7.771H180.44v-3.165Zm18.44,15.886h-4.4V248.894h4.4v15.886Zm0-17.688h-4.4v-3.948h4.4v3.948Zm12.251,14.272H215.6v3.415h-5.687a14.24,14.24,0,0,1-3.18-.36,5.713,5.713,0,0,1-2.789-1.52,6.89,6.89,0,0,1-1.6-2.334,9.562,9.562,0,0,1-.721-2.757c0-.141-.016-.282-.016-.439a4.257,4.257,0,0,1-.016-.439c0-.157,0-.345.016-.517a3.108,3.108,0,0,1,.047-.548,8.744,8.744,0,0,1,.689-2.71,7.046,7.046,0,0,1,1.6-2.334,6.007,6.007,0,0,1,2.789-1.535,14.239,14.239,0,0,1,3.18-.36l5.687-.031v3.447h-4.465a.673.673,0,0,1-.188.031h-.862a9.441,9.441,0,0,0-1.175.078,3.453,3.453,0,0,0-1.081.392,3.288,3.288,0,0,0-1.488,1.786,7.167,7.167,0,0,0-.376,2.3,6.858,6.858,0,0,0,.423,2.256,3.212,3.212,0,0,0,1.441,1.692,2.818,2.818,0,0,0,1.081.392,9.3,9.3,0,0,0,1.175.125h1.05Zm-40.106-12.737v3.447a4.107,4.107,0,0,0-2.146.658,3.685,3.685,0,0,0-1.629,2.1,7.766,7.766,0,0,0-.235,1.081,6.378,6.378,0,0,0-.047,1.081,6.247,6.247,0,0,0,.658,2.663,3.443,3.443,0,0,0,1.974,1.77V261.4a4.335,4.335,0,0,0,.407.157,3.206,3.206,0,0,0,.376.078,4.43,4.43,0,0,0,.642.047v3.431h-.016a10.231,10.231,0,0,1-3.306-.548,6.979,6.979,0,0,1-2.742-1.661,7.207,7.207,0,0,1-1.77-2.742,9.454,9.454,0,0,1-.58-3.29,9.346,9.346,0,0,1,.58-3.259,7.389,7.389,0,0,1,1.77-2.757,7.111,7.111,0,0,1,2.757-1.661,9.838,9.838,0,0,1,3.306-.564Zm-25.959,16.152v-3.447a12.073,12.073,0,0,0,1.535-.235q1.786-.4,2.021-3.1a6.055,6.055,0,0,0,.047-.752c.016-.251.016-.47.016-.721a7.21,7.21,0,0,0-.172-1.3,4.775,4.775,0,0,0-.486-1.175,2.625,2.625,0,0,0-1.708-1.441,7.52,7.52,0,0,0-1.253-.188v-3.525a14.558,14.558,0,0,1,3.478.486,5.416,5.416,0,0,1,2.82,1.99,7.423,7.423,0,0,1,1.394,2.789,10.339,10.339,0,0,1,.3,3.1,7.981,7.981,0,0,1-2.146,5.515,7.562,7.562,0,0,1-5.562,2.005Zm14.977,0h-4.4V248.894h4.4v15.886Zm0-17.688h-4.4v-3.948h4.4ZM74.565,261.458h8.82a.484.484,0,0,0,.125.031h.125a3.637,3.637,0,0,0,1.379-.329,1.235,1.235,0,0,0,.642-1.238,1.187,1.187,0,0,0-.611-1.175,3.279,3.279,0,0,0-1.285-.36h-.376l-3.6-.031a8.865,8.865,0,0,1-3.995-.7c-.971-.47-1.473-1.692-1.488-3.65a4.531,4.531,0,0,1,1.5-3.932,6.733,6.733,0,0,1,4.089-1.144l9.008-.031v3.321H81.49a.689.689,0,0,1-.157.031H80.315a2.926,2.926,0,0,0-1.034.235,1.1,1.1,0,0,0-.642.783q-.258,1.057.423,1.457a3.019,3.019,0,0,0,1.535.392l3.791-.031a6.657,6.657,0,0,1,3.729,1.034,4.061,4.061,0,0,1,1.6,3.478v.078a5.739,5.739,0,0,1-1.1,3.525,3.752,3.752,0,0,1-3.243,1.582H74.565v-3.321Zm70.5-12.565v3.525q-.493-.047-1.034-.047v-.031h-2.554v9.024l.611.047c.219.016.423.016.627.016a16.369,16.369,0,0,0,2.35-.094v3.447h-7.786V243.144h4.2v5.75ZM99.507,261.27h3.384V248.894h4.183v15.463a6.552,6.552,0,0,1-1.426,4.59c-.94,1.034-2.46,1.551-4.543,1.551H92.88V267.27h7.5a2.7,2.7,0,0,0,1.9-.627,2.4,2.4,0,0,0,.611-1.864H99.178a7.922,7.922,0,0,1-4.9-1.3c-1.128-.862-1.692-2.46-1.692-4.763v-9.823h4.152v9.463a3.689,3.689,0,0,0,.533,2.35,3.043,3.043,0,0,0,2.24.6v-.031Zm11.327-12.377h16.09a8.827,8.827,0,0,1,4.825,1.269c1.159.8,1.755,2.334,1.77,4.59v10.027H129.3v-9.525c0-1.488-.313-2.334-.956-2.569a7.774,7.774,0,0,0-2.836-.282c-.2.016-.407.016-.627.016h-.642v12.361h-4.277V252.4h-4.919v12.377h-4.214Z" transform="translate(0 -89.345)"/>
    <path id="Path_3" data-name="Path 3" d="M101.911,395.019v-.956a2,2,0,0,0,.3-.016,1.9,1.9,0,0,0,.282-.078,1.225,1.225,0,0,0,.564-.392,1.913,1.913,0,0,0,.282-.627,3.936,3.936,0,0,0,.063-.423,3.84,3.84,0,0,0,.031-.423,4.127,4.127,0,0,0-.031-.439,3.169,3.169,0,0,0-.063-.407,2,2,0,0,0-.282-.642,1.2,1.2,0,0,0-.564-.376,1.9,1.9,0,0,0-.282-.078,2,2,0,0,0-.3-.016v-.987c.157,0,.329.016.517.031a3.045,3.045,0,0,1,.517.11,2.063,2.063,0,0,1,1.034.548,2.264,2.264,0,0,1,.58,1c.047.188.094.392.125.6a4.219,4.219,0,0,1,.047.627,4.648,4.648,0,0,1-.047.658,3.51,3.51,0,0,1-.125.611,2.137,2.137,0,0,1-1.645,1.567c-.172.031-.345.063-.517.078-.157.016-.329.031-.486.031Zm8.57-4.747h-1.817v-.987h4.857v.987H111.7v4.637h-1.222v-4.637Zm9.666-.016a1.331,1.331,0,0,0-.971.345,1.608,1.608,0,0,0-.36.971h3.274v.971h-3.274a2.349,2.349,0,0,0,.063.58,1.417,1.417,0,0,0,.266.5.74.74,0,0,0,.439.251,2.578,2.578,0,0,0,.5.063h.063l1.943-.016v.987H120.1a4.512,4.512,0,0,1-.924-.094,2.019,2.019,0,0,1-.83-.392,2.149,2.149,0,0,1-.658-.94,4.078,4.078,0,0,1-.2-1.128v-.486a2.963,2.963,0,0,1,.736-1.958,2.6,2.6,0,0,1,1.911-.627h1.958v.971Zm9.04-.016a1.1,1.1,0,0,0-1.112.564,3.617,3.617,0,0,0-.266,1.3v.517a3.218,3.218,0,0,0,.11.533,1.363,1.363,0,0,0,.251.47.787.787,0,0,0,.439.251,2.739,2.739,0,0,0,.5.063h.078l1.943-.016v.987h-2.005a4.253,4.253,0,0,1-.909-.094,2.078,2.078,0,0,1-.846-.392,2.149,2.149,0,0,1-.658-.94,4.078,4.078,0,0,1-.2-1.128v-.251c0-.078.016-.157.016-.235a2.959,2.959,0,0,1,.721-1.958,2.6,2.6,0,0,1,1.911-.627h1.974v.956Zm7.724-.956v2.272h2.178v-2.272h1.175v5.624h-1.175v-2.35H136.91v2.35h-1.175v-5.624ZM75.686,394.91H74.448v-5.624h1.238v5.624Zm26.226-5.75v.987a1.8,1.8,0,0,0-.3.016,1.216,1.216,0,0,0-.282.078,1,1,0,0,0-.564.392,1.775,1.775,0,0,0-.282.627v-.016a2.007,2.007,0,0,0-.078.423,4.127,4.127,0,0,0-.031.439,3.84,3.84,0,0,0,.031.423,4.008,4.008,0,0,0,.078.423,1.432,1.432,0,0,0,.282.627,1.082,1.082,0,0,0,.564.392,1.216,1.216,0,0,0,.282.078,1.8,1.8,0,0,0,.3.016v.956h-.047a4.748,4.748,0,0,1-.486-.031,4.48,4.48,0,0,1-.486-.078,2.192,2.192,0,0,1-1.034-.548,2.125,2.125,0,0,1-.6-1.018,3.328,3.328,0,0,1-.125-.6,4.431,4.431,0,0,1-.047-.642,4.648,4.648,0,0,1,.047-.658,2.222,2.222,0,0,1,.125-.6h0a2.148,2.148,0,0,1,1.629-1.567,4.5,4.5,0,0,1,.486-.078,2.7,2.7,0,0,1,.5-.031l.031-.016Zm-21.322.125h1.488l2.3,4.042-.047-4.042H85.54v5.624H84.161l-2.413-4.261.047,4.261H80.589v-5.624Zm9.792,3.039a4.065,4.065,0,0,1,.5-2.334q.517-.705,2.256-.7h1.8v.971h-1.9a1.723,1.723,0,0,0-1.1.329,1.449,1.449,0,0,0-.392,1.05H94.94v.971H91.556v2.3H90.381Z" transform="translate(-0.117 -203.589)" fill="#189c7b"/>
    <path id="Path_4" data-name="Path 4" d="M530.678,394.784v-.971h.078a2.717,2.717,0,0,0,.5-.047.817.817,0,0,0,.439-.266,1.2,1.2,0,0,0,.251-.486,3.586,3.586,0,0,0,.11-.564v-.721a1.431,1.431,0,0,0-.016-.251,3.163,3.163,0,0,0-.094-.533.977.977,0,0,0-.251-.47.817.817,0,0,0-.439-.266,1.833,1.833,0,0,0-.5-.063h-.078v-.987h.031a2.675,2.675,0,0,1,1.911.642,2.926,2.926,0,0,1,.721,1.958c0,.078.016.157.016.235v.235a3.88,3.88,0,0,1-.2,1.128,1.985,1.985,0,0,1-.658.94,1.873,1.873,0,0,1-.83.407,5.965,5.965,0,0,1-.924.078Zm5.765-.971h.94v.971h-.94Zm-48.034-3.65h-.125v-1h.141a.015.015,0,0,0,.016.016h.313a1.8,1.8,0,0,1,.3.016,2.912,2.912,0,0,1,.533.063,1.676,1.676,0,0,1,.486.2,1.278,1.278,0,0,1,.6.658,2.174,2.174,0,0,1,.188.893,2.409,2.409,0,0,1-.141.815,1.607,1.607,0,0,1-1.159.924,3.6,3.6,0,0,1-.7.078h-.564v-1h.188a1.408,1.408,0,0,0,.752-.172.671.671,0,0,0,.313-.642c.016-.36-.094-.6-.329-.689a2.137,2.137,0,0,0-.8-.141v-.016Zm42.268-1v.987h-1.363v3.666h1.363v.971h-2.554V389.16Zm-34.827,5.624-2.444-5.624h1.332l1.692,4.2,1.723-4.2h1.269l-2.35,5.624Zm7.661-4.637h-1.817v-.971h4.857v.971h-1.817v4.637h-1.222v-4.637Zm5.906,3.666h.94v.971h-.94v-.971Zm6.611.971a6.846,6.846,0,0,1-1-.078,1.552,1.552,0,0,1-.846-.5,1.44,1.44,0,0,1-.423-.783,4.365,4.365,0,0,1-.094-.909V389.16h1.191v3.086a2.806,2.806,0,0,0,.172,1.206c.11.266.486.407,1.112.407h1.394v.924Zm5.922-4.637h-1.817v-.971h4.857v.971h-1.817v4.637h-1.222Zm-33.667.016h-1.253v1.661h1.253v1h-1.253v1.958h-1.175V389.16h2.428Z" transform="translate(-322.007 -203.589)" fill="#919191"/>
  </g>
</svg>
